<mxfile host="app.diagrams.net" modified="2021-09-17T20:36:51.079Z" agent="5.0 (Windows NT 10.0; Win64; x64) AppleWebKit/537.36 (KHTML, like Gecko) Chrome/93.0.4577.82 Safari/537.36" etag="m5DB-ACniB5aIPQSSHoI" version="15.2.9" type="github">
  <diagram name="Page-1" id="e7e014a7-5840-1c2e-5031-d8a46d1fe8dd">
    <mxGraphModel dx="1422" dy="794" grid="1" gridSize="10" guides="1" tooltips="1" connect="1" arrows="1" fold="1" page="1" pageScale="1" pageWidth="1169" pageHeight="826" math="0" shadow="0">
      <root>
        <mxCell id="0" />
        <mxCell id="1" parent="0" />
        <mxCell id="hgJg5I-fCHWlmBvLn_1_-48" value="" style="edgeStyle=orthogonalEdgeStyle;curved=0;rounded=1;sketch=0;orthogonalLoop=1;jettySize=auto;html=1;" edge="1" parent="1" source="hgJg5I-fCHWlmBvLn_1_-41" target="hgJg5I-fCHWlmBvLn_1_-47">
          <mxGeometry relative="1" as="geometry" />
        </mxCell>
        <object label="Administrador" id="hgJg5I-fCHWlmBvLn_1_-41">
          <mxCell style="shape=umlActor;verticalLabelPosition=bottom;verticalAlign=top;html=1;outlineConnect=0;labelPadding=0;" vertex="1" parent="1">
            <mxGeometry x="255" y="260" width="30" height="60" as="geometry" />
          </mxCell>
        </object>
        <mxCell id="hgJg5I-fCHWlmBvLn_1_-42" value="" style="ellipse;html=1;shape=startState;" vertex="1" parent="1">
          <mxGeometry x="285" y="290" width="30" height="30" as="geometry" />
        </mxCell>
        <mxCell id="hgJg5I-fCHWlmBvLn_1_-43" value="" style="edgeStyle=orthogonalEdgeStyle;html=1;verticalAlign=bottom;endArrow=open;endSize=8;" edge="1" source="hgJg5I-fCHWlmBvLn_1_-42" parent="1">
          <mxGeometry relative="1" as="geometry">
            <mxPoint x="385" y="305" as="targetPoint" />
          </mxGeometry>
        </mxCell>
        <mxCell id="hgJg5I-fCHWlmBvLn_1_-62" style="edgeStyle=orthogonalEdgeStyle;curved=0;rounded=1;sketch=0;orthogonalLoop=1;jettySize=auto;html=1;entryX=0;entryY=0.5;entryDx=0;entryDy=0;" edge="1" parent="1" source="hgJg5I-fCHWlmBvLn_1_-44" target="hgJg5I-fCHWlmBvLn_1_-61">
          <mxGeometry relative="1" as="geometry" />
        </mxCell>
        <mxCell id="hgJg5I-fCHWlmBvLn_1_-44" value="Iniciar Sesión" style="ellipse;whiteSpace=wrap;html=1;" vertex="1" parent="1">
          <mxGeometry x="405" y="230" width="140" height="110" as="geometry" />
        </mxCell>
        <mxCell id="hgJg5I-fCHWlmBvLn_1_-52" style="edgeStyle=orthogonalEdgeStyle;curved=0;rounded=1;sketch=0;orthogonalLoop=1;jettySize=auto;html=1;entryX=0.5;entryY=1;entryDx=0;entryDy=0;" edge="1" parent="1" source="hgJg5I-fCHWlmBvLn_1_-47" target="hgJg5I-fCHWlmBvLn_1_-44">
          <mxGeometry relative="1" as="geometry" />
        </mxCell>
        <object label="Usuario:asistente,médico" id="hgJg5I-fCHWlmBvLn_1_-47">
          <mxCell style="shape=umlActor;verticalLabelPosition=bottom;verticalAlign=top;html=1;outlineConnect=0;labelPadding=0;" vertex="1" parent="1">
            <mxGeometry x="255" y="400" width="30" height="60" as="geometry" />
          </mxCell>
        </object>
        <mxCell id="hgJg5I-fCHWlmBvLn_1_-49" value="Aplicación" style="verticalAlign=top;align=left;spacingTop=8;spacingLeft=2;spacingRight=12;shape=cube;size=10;direction=south;fontStyle=4;html=1;rounded=0;sketch=0;" vertex="1" parent="1">
          <mxGeometry x="780" y="210" width="180" height="120" as="geometry" />
        </mxCell>
        <mxCell id="hgJg5I-fCHWlmBvLn_1_-53" value="&lt;b&gt;&lt;font style=&quot;font-size: 14px&quot;&gt;Caso de uso 1:Iniciar sesión&lt;/font&gt;&lt;/b&gt;" style="text;html=1;strokeColor=none;fillColor=none;align=center;verticalAlign=middle;whiteSpace=wrap;rounded=0;sketch=0;" vertex="1" parent="1">
          <mxGeometry x="315" y="510" width="580" height="20" as="geometry" />
        </mxCell>
        <mxCell id="hgJg5I-fCHWlmBvLn_1_-64" style="edgeStyle=orthogonalEdgeStyle;curved=0;rounded=1;sketch=0;orthogonalLoop=1;jettySize=auto;html=1;exitX=1;exitY=0.5;exitDx=0;exitDy=0;entryX=0.625;entryY=1;entryDx=0;entryDy=0;entryPerimeter=0;" edge="1" parent="1" source="hgJg5I-fCHWlmBvLn_1_-61" target="hgJg5I-fCHWlmBvLn_1_-49">
          <mxGeometry relative="1" as="geometry" />
        </mxCell>
        <mxCell id="hgJg5I-fCHWlmBvLn_1_-61" value="" style="ellipse;html=1;shape=endState;fillColor=#000000;strokeColor=#ff0000;rounded=0;sketch=0;" vertex="1" parent="1">
          <mxGeometry x="690" y="270" width="30" height="30" as="geometry" />
        </mxCell>
      </root>
    </mxGraphModel>
  </diagram>
</mxfile>
